<?xml version="1.0" encoding="utf-8"?>
<!-- Generator: Adobe Illustrator 21.0.0, SVG Export Plug-In . SVG Version: 6.00 Build 0)  -->
<svg version="1.1" id="Layer_1" xmlns="http://www.w3.org/2000/svg" xmlns:xlink="http://www.w3.org/1999/xlink" x="0px" y="0px"
	 viewBox="0 0 597.5 95.6" style="enable-background:new 0 0 597.5 95.6;" xml:space="preserve">
<style type="text/css">
	.st0{fill:#529374;}
	.st1{fill:#4D4D4D;}
</style>
<g>
	<g>
		<path class="st0" d="M135.5,60.4c1.5,0.8,2.5,2,3.2,3.5l-1.5,17.9c-2.5,4.5-5.6,7.5-9.5,9.2c-3.4,1.5-6.9,2.3-10.5,2.3
			c-6.3,0-11.4-2-15.1-6.1c-5.2-5.7-7.5-13.9-6.8-24.5c0.7-10.3,4.1-17.9,10.1-22.9c4.9-3.3,10.7-4.9,17.3-4.9
			c3.6,0,6.6,0.4,8.9,1.2c2.3,0.8,4.8,2.4,7.4,5c0.2,4.4-0.9,8.1-3.3,10.9l-3.8-1.7c-3-1.8-6.3-2.7-9.9-2.7
			c-4.8,0.1-8.3,1.2-10.5,3.3c-2.2,2.1-3.6,6.4-4.2,12.8c-0.4,5.4,0.1,9.6,1.4,12.4c1.3,4,4.4,5.8,9.3,5.5c5.2-0.6,8-2.5,8.5-5.6
			l0.2-3.9l-7.8-0.1c-2.3-4.5-1.9-8.4,1.2-11.8L135.5,60.4z"/>
		<path class="st0" d="M147.8,35.7c12.6-1.2,21.3-1.4,26.3-0.5c5,0.8,8.2,3.2,9.5,6.9c1.3,3.8,1.4,8.9,0.2,15.3
			c-1.2,6.4-5.9,10.6-14,12.6l13.4,17.3c-2.5,5-6.6,6.6-12.4,4.8l-13.3-19.2l-4.4,0.5l-1.8,17.9c-5.2,1.8-9.3,1.4-12.4-1.2l4.8-51.7
			L147.8,35.7z M155.8,46.3l-1.6,15.6c10.4-0.7,16.2-2.6,17.5-5.5c1.3-3,1.3-5.7,0.2-8.1C170.7,45.8,165.4,45.2,155.8,46.3z"/>
		<path class="st0" d="M226.1,34.9c1.2,4,1,7.7-0.6,11.1l-24.7,0.8l-0.7,9.7l20.3-0.4c1.9,3.7,1.7,7.2-0.5,10.4l-20.7,0.9l-1,11.7
			l25.4-0.8c2.1,4.5,1.8,8.6-0.9,12.6l-35.4,1.4c-1.1-0.2-1.8-1-2-2.4l3.4-51.8c0.3-1,0.9-1.7,1.8-2.1L226.1,34.9z"/>
		<path class="st0" d="M268.3,34.9c1.2,4,1,7.7-0.6,11.1l-24.7,0.8l-0.7,9.7l20.3-0.4c1.9,3.7,1.7,7.2-0.5,10.4l-20.7,0.9l-1,11.7
			l25.4-0.8c2.1,4.5,1.8,8.6-0.9,12.6l-35.4,1.4c-1.1-0.2-1.8-1-2-2.4l3.4-51.8c0.3-1,0.9-1.7,1.8-2.1L268.3,34.9z"/>
		<path class="st0" d="M283.8,35.8l18,30.5l1.8-29.8c3.9-1.9,7.6-1.9,11.2,0.1l-3.3,53.9c-2.6,2.3-6.1,2.6-10.5,0.8l-16.9-30.9
			l-2.1,30.9c-5.4,1.4-9.5,1.1-12.3-0.9l3.3-53.1C274.8,34.9,278.4,34.4,283.8,35.8z"/>
		<path class="st1" d="M330,36l-1.1,21.1l18-0.9l1.4-19.7c3.9-1.9,7.6-1.9,11.2,0.1L357,90.4c-4.7,2.3-8.7,2.4-12.2,0.3l1.1-23.1
			l-17.7,0.8l-1.4,23.1c-5.4,1.4-9.5,1.1-12.3-0.9l3.3-53.1C321.4,34.7,325.5,34.2,330,36z"/>
		<path class="st1" d="M387.5,34.8c6.9,0,12.4,2.7,16.5,8.1c4.1,5.4,5.7,12.3,5,20.6c-0.8,8.3-3.5,15.2-8.3,20.5
			c-4.8,5.4-10.7,8.1-17.7,8.1c-7,0-12.7-2.6-17.2-7.9c-4.4-5.3-6.3-12-5.6-20.2c0.7-8.2,3.7-15.2,9-20.8
			C374.5,37.6,380.5,34.8,387.5,34.8z M386.4,49c-3.3,0-6.3,1.3-9,4c-2.7,2.7-4.3,6.3-4.8,10.8c-0.6,4.5,0.4,8.2,2.8,11.2
			c2.4,2.9,5.3,4.3,8.8,4.2c3.4-0.2,6.3-1.7,8.6-4.5c2.3-2.8,3.7-6.3,4.1-10.5c0.4-4.2-0.4-7.8-2.4-10.7
			C392.4,50.6,389.7,49.1,386.4,49z"/>
		<path class="st1" d="M418.6,35.7c12.6-1.2,21.3-1.4,26.3-0.5c5,0.8,8.2,3.2,9.5,6.9c1.3,3.8,1.4,8.9,0.2,15.3
			c-1.2,6.4-5.9,10.6-14,12.6L454,87.3c-2.5,5-6.6,6.6-12.4,4.8l-13.3-19.2l-4.4,0.5l-1.8,17.9c-5.2,1.8-9.3,1.4-12.4-1.2l4.8-51.7
			L418.6,35.7z M426.6,46.3l-1.6,15.6c10.4-0.7,16.2-2.6,17.5-5.5c1.3-3,1.3-5.7,0.2-8.1C441.5,45.8,436.2,45.2,426.6,46.3z"/>
		<path class="st1" d="M470.1,35.8l18,30.5l1.8-29.8c3.9-1.9,7.6-1.9,11.2,0.1l-3.3,53.9c-2.6,2.3-6.1,2.6-10.5,0.8l-16.9-30.9
			l-2.1,30.9c-5.4,1.4-9.5,1.1-12.3-0.9l3.3-53.1C461.1,34.9,464.7,34.4,470.1,35.8z"/>
	</g>
	<g>
		<g>
			<path class="st1" d="M595.7,7c1.2,5.9-0.8,12.2-4.5,16.8c0.9-3.4,0.5-7.1-1-10.3c-1.1-2.4-2.8-4.5-4.1-6.8s-2.6-4.1-1.9-6.7
				c-1.7,5.8,1.9,11.8,2,17.9c0.1,6-3.2,11.6-7.1,16.3c-8.4,10.2-19.6,17.2-31.3,23.2c2.7-4.7,4-10.1,3.6-15.5
				c-0.3-3.3-1.3-6.8-3.7-9.1c1.6,7.9-0.7,16.2-5.2,22.8c-0.7,1-1.3,1.9-2.1,2.8c-2.4,2.9-5.5,5.3-9,6.9c0,0,0,0,0,0
				c-9.7,4.6-19.4,10.4-24.8,19.6c-1.3,0.7-1,2.8,0,3.9c1,1.1,2.6,1.4,4.1,1.3c1.5-0.1,2.9-0.6,4.4-0.8c5.8-0.8,11.2,2.5,16.6,4.4
				c10.1,3.5,21.9,2,30.8-4.1c-12.3,3.8-26.1,2-37.1-4.7c-1.2-0.7-2.5-1.7-2.7-3.1c-0.2-1.5,0.8-2.8,1.9-3.9
				c4.5-4.2,10.7-6,16.9-6.4c6.1-0.4,12.2,0.5,18.3,1.2c2.9,0.3,5.8,0.5,8.6-0.2c2.8-0.7,5.4-2.6,6.3-5.3c-5.1,2.3-11,2.7-16.3,1.1
				c-1.3-0.4-2.4-1.3-2.9-2.5c-1.2-2.9,2-5.3,4.6-6.8c10.6-6,20-13.9,27.8-23.2c3.4-4.1,6.5-8.5,8.2-13.5
				C597.9,17.5,598.1,11.8,595.7,7z"/>
		</g>
		<g>
			<path class="st1" d="M1.7,7c-1.2,5.9,0.8,12.2,4.5,16.8c-0.9-3.4-0.5-7.1,1-10.3c1.1-2.4,2.8-4.5,4.1-6.8S14,2.6,13.2,0
				c1.7,5.8-1.9,11.8-2,17.9c-0.1,6,3.2,11.6,7.1,16.3C26.8,44.4,38,51.4,49.7,57.3c-2.7-4.7-4-10.1-3.6-15.5
				c0.3-3.3,1.3-6.8,3.7-9.1c-1.6,7.9,0.7,16.2,5.2,22.8c0.7,1,1.3,1.9,2.1,2.8c2.4,2.9,5.5,5.3,9,6.9c0,0,0,0,0,0
				c9.7,4.6,19.4,10.4,24.8,19.6c1.3,0.7,1,2.8,0,3.9c-1,1.1-2.6,1.4-4.1,1.3c-1.5-0.1-2.9-0.6-4.4-0.8c-5.8-0.8-11.2,2.5-16.6,4.4
				c-10.1,3.5-21.9,2-30.8-4.1c12.3,3.8,26.1,2,37.1-4.7c1.2-0.7,2.5-1.7,2.7-3.1c0.2-1.5-0.8-2.8-1.9-3.9c-4.5-4.2-10.7-6-16.9-6.4
				c-6.1-0.4-12.2,0.5-18.3,1.2c-2.9,0.3-5.8,0.5-8.6-0.2c-2.8-0.7-5.4-2.6-6.3-5.3c5.1,2.3,11,2.7,16.3,1.1
				c1.3-0.4,2.4-1.3,2.9-2.5c1.2-2.9-2-5.3-4.6-6.8c-10.6-6-20-13.9-27.8-23.2C6.1,31.9,3,27.5,1.3,22.5C-0.4,17.5-0.6,11.8,1.7,7z"
				/>
		</g>
	</g>
</g>
</svg>
